<?xml version="1.0" standalone="no"?>
<!DOCTYPE svg PUBLIC "-//W3C//DTD SVG 20010904//EN"
 "http://www.w3.org/TR/2001/REC-SVG-20010904/DTD/svg10.dtd">
<svg version="1.0" xmlns="http://www.w3.org/2000/svg"
 width="842.000000pt" height="1181.000000pt" viewBox="0 0 842.000000 1181.000000"
 preserveAspectRatio="xMidYMid meet">
<metadata>
Created by potrace 1.14, written by Peter Selinger 2001-2017
</metadata>
<g transform="translate(0.000000,1181.000000) scale(0.100000,-0.100000)"
fill="#000000" stroke="none">
<path d="M5490 11799 c-1181 -82 -2341 -535 -3270 -1278 -188 -150 -560 -491
-560 -512 0 -13 5709 -12 5824 1 314 36 558 246 642 552 27 96 25 280 -4 381
-71 249 -243 427 -556 578 -312 149 -732 241 -1276 279 -170 12 -621 11 -800
-1z"/>
<path d="M968 9147 c-256 -390 -456 -789 -616 -1227 -52 -142 -132 -394 -132
-414 0 -3 1432 -5 3183 -4 l3182 3 76 22 c277 79 493 256 604 496 65 140 80
213 79 387 0 139 -3 164 -27 243 -103 334 -358 569 -692 638 -86 18 -197 19
-2820 19 l-2730 0 -107 -163z"/>
<path d="M65 6798 c-9 -28 -45 -364 -56 -528 -13 -195 -7 -719 11 -890 14
-145 40 -352 45 -368 4 -10 338 -12 1707 -10 l1703 3 80 23 c255 72 454 229
574 454 205 383 105 858 -237 1130 -90 71 -227 139 -342 170 l-85 23 -1698 2
c-1365 3 -1698 1 -1702 -9z"/>
<path d="M225 4278 c15 -69 135 -420 195 -568 160 -396 330 -719 564 -1073
l91 -137 2765 2 2765 3 88 28 c400 125 657 466 657 870 -1 463 -350 848 -814
897 -56 6 -1281 10 -3204 10 l-3114 0 7 -32z"/>
<path d="M1790 1668 c739 -717 1642 -1226 2630 -1482 288 -75 573 -126 900
-162 196 -21 756 -30 975 -15 1230 84 1888 475 1851 1097 -16 264 -177 507
-410 619 -171 82 118 75 -3158 75 l-2923 -1 135 -131z"/>
</g>
</svg>
